# Created by Kenney (www.kenney.nl)

mtllib window.mtl

g mergedBlocks

v -0.5625 2.244152E-31 -0.5
v -0.5625 1.4 -0.5
v -0.5 8.843415E-16 -0.4375
v -0.5 1.4 -0.4375
v 0.5625 5.05338E-16 -0.5
v 0.5 8.843415E-16 -0.4375
v 0.5625 1.4 -0.5
v 0.5 1.4 -0.4375
v 0.5 8.843415E-16 -0.5625
v -0.5 8.843415E-16 -0.5625
v 0.5 1.4 -0.5625
v -0.5 1.4 -0.5625
v 0.3 0.14 -0.4375
v 0.3 1.26 -0.4375
v -0.3 1.26 -0.4375
v -0.3 0.14 -0.4375
v -0.3 0.14 -0.5625
v -0.3 1.26 -0.5625
v 0.3 1.26 -0.5625
v 0.3 0.14 -0.5625
v -0.2 1.12 -0.5925
v -0.2 0.28 -0.5925
v -0.2 1.12 -0.5
v -0.2 0.28 -0.5
v -0.2 1.12 -0.4075
v -0.2 0.28 -0.4075
v 0.2 0.28 -0.5925
v 0.2 0.28 -0.5
v 0.2 0.28 -0.4075
v 0.2 1.12 -0.5925
v 0.2 1.12 -0.5
v 0.2 1.12 -0.4075
v 0.1491 0.3512599 -0.5
v 0.1491 0.66437 -0.5
v 0.1491 0.73563 -0.5
v -0.1491 0.66437 -0.5
v 0.1491 1.04874 -0.5
v -0.1491 1.04874 -0.5
v -0.1491 0.3512599 -0.5
v -0.1491 0.73563 -0.5
v 0.3 0.14 -0.5925
v -0.3 0.14 -0.5925
v -0.3 1.26 -0.5925
v 0.3 1.26 -0.5925
v -0.3 0.14 -0.4075
v 0.3 0.14 -0.4075
v 0.3 1.26 -0.4075
v -0.3 1.26 -0.4075

vn -0.7071068 0 0.7071068
vn 0.7071068 0 0.7071068
vn 0 -1 0
vn 0 1 0
vn 0.7071068 0 -0.7071068
vn -0.7071068 0 -0.7071068
vn 0 0 1
vn 0 0 -1
vn 1 0 0
vn -1 0 0

vt 0.0625 0.0625
vt 0.1875 0.0625
vt 0.6875 0.0625
vt 0 0

usemtl window

f 3/1/1 2/1/1 1/1/1
f 2/1/1 3/1/1 4/1/1
f 7/1/2 6/1/2 5/1/2
f 6/1/2 7/1/2 8/1/2
f 6/1/3 9/1/3 5/1/3
f 9/1/3 6/1/3 10/1/3
f 10/1/3 6/1/3 3/1/3
f 10/1/3 3/1/3 1/1/3
f 11/1/4 8/1/4 7/1/4
f 8/1/4 11/1/4 12/1/4
f 8/1/4 12/1/4 4/1/4
f 4/1/4 12/1/4 2/1/4
f 7/1/5 9/1/5 11/1/5
f 9/1/5 7/1/5 5/1/5
f 2/1/6 10/1/6 1/1/6
f 10/1/6 2/1/6 12/1/6
f 6/1/7 13/1/7 3/1/7
f 13/1/7 6/1/7 8/1/7
f 13/1/7 8/1/7 14/1/7
f 14/1/7 8/1/7 15/1/7
f 16/1/7 3/1/7 13/1/7
f 3/1/7 16/1/7 4/1/7
f 4/1/7 16/1/7 15/1/7
f 4/1/7 15/1/7 8/1/7
f 10/1/8 17/1/8 9/1/8
f 17/1/8 10/1/8 12/1/8
f 17/1/8 12/1/8 18/1/8
f 18/1/8 12/1/8 19/1/8
f 20/1/8 9/1/8 17/1/8
f 9/1/8 20/1/8 11/1/8
f 11/1/8 20/1/8 19/1/8
f 11/1/8 19/1/8 12/1/8

usemtl window

f 23/2/9 22/2/9 21/2/9
f 22/2/9 23/2/9 24/2/9
f 25/2/9 24/2/9 23/2/9
f 24/2/9 25/2/9 26/2/9
f 22/2/4 28/2/4 27/2/4
f 28/2/4 22/2/4 24/2/4
f 24/2/4 29/2/4 28/2/4
f 29/2/4 24/2/4 26/2/4
f 28/2/10 30/2/10 27/2/10
f 30/2/10 28/2/10 31/2/10
f 29/2/10 31/2/10 28/2/10
f 31/2/10 29/2/10 32/2/10
f 31/2/3 21/2/3 30/2/3
f 21/2/3 31/2/3 23/2/3
f 32/2/3 23/2/3 31/2/3
f 23/2/3 32/2/3 25/2/3
f 28/2/7 33/2/7 24/2/7
f 33/2/7 28/2/7 31/2/7
f 33/2/7 31/2/7 34/2/7
f 34/2/7 31/2/7 35/2/7
f 34/2/7 35/2/7 36/2/7
f 35/2/7 31/2/7 37/2/7
f 37/2/7 31/2/7 38/2/7
f 39/2/7 24/2/7 33/2/7
f 24/2/7 39/2/7 23/2/7
f 23/2/7 39/2/7 36/2/7
f 23/2/7 38/2/7 31/2/7
f 23/2/7 36/2/7 40/2/7
f 40/2/7 36/2/7 35/2/7
f 23/2/7 40/2/7 38/2/7
f 24/2/8 33/2/8 28/2/8
f 31/2/8 28/2/8 33/2/8
f 34/2/8 31/2/8 33/2/8
f 35/2/8 31/2/8 34/2/8
f 36/2/8 35/2/8 34/2/8
f 37/2/8 31/2/8 35/2/8
f 38/2/8 31/2/8 37/2/8
f 33/2/8 24/2/8 39/2/8
f 23/2/8 39/2/8 24/2/8
f 36/2/8 39/2/8 23/2/8
f 31/2/8 38/2/8 23/2/8
f 40/2/8 36/2/8 23/2/8
f 35/2/8 36/2/8 40/2/8
f 38/2/8 40/2/8 23/2/8
f 42/2/8 22/2/8 41/2/8
f 22/2/8 42/2/8 43/2/8
f 22/2/8 43/2/8 21/2/8
f 21/2/8 43/2/8 30/2/8
f 27/2/8 41/2/8 22/2/8
f 41/2/8 27/2/8 44/2/8
f 44/2/8 27/2/8 30/2/8
f 44/2/8 30/2/8 43/2/8
f 19/2/9 41/2/9 44/2/9
f 41/2/9 19/2/9 20/2/9
f 20/2/3 42/2/3 41/2/3
f 42/2/3 20/2/3 17/2/3
f 17/2/10 43/2/10 42/2/10
f 43/2/10 17/2/10 18/2/10
f 43/2/4 19/2/4 44/2/4
f 19/2/4 43/2/4 18/2/4
f 46/2/7 29/2/7 45/2/7
f 29/2/7 46/2/7 47/2/7
f 29/2/7 47/2/7 32/2/7
f 32/2/7 47/2/7 25/2/7
f 26/2/7 45/2/7 29/2/7
f 45/2/7 26/2/7 48/2/7
f 48/2/7 26/2/7 25/2/7
f 48/2/7 25/2/7 47/2/7
f 47/2/9 13/2/9 14/2/9
f 13/2/9 47/2/9 46/2/9
f 15/2/4 47/2/4 14/2/4
f 47/2/4 15/2/4 48/2/4
f 45/2/10 15/2/10 16/2/10
f 15/2/10 45/2/10 48/2/10
f 46/2/3 16/2/3 13/2/3
f 16/2/3 46/2/3 45/2/3

usemtl window

f 37/3/7 40/3/7 35/3/7
f 40/3/7 37/3/7 38/3/7
f 35/3/8 40/3/8 37/3/8
f 38/3/8 37/3/8 40/3/8
f 34/3/7 39/3/7 33/3/7
f 39/3/7 34/3/7 36/3/7
f 33/3/8 39/3/8 34/3/8
f 36/3/8 34/3/8 39/3/8

